<svg width="129" height="33" viewBox="0 0 129 33" fill="none" xmlns="http://www.w3.org/2000/svg">
<path d="M24.0412 22.9435C24.0412 29.3983 18.647 32.4529 11.9423 32.4529C1.6207 32.4511 0 26.0841 0 21.8961H5.08244C5.05143 26.0393 7.73301 27.7403 11.9113 27.7403C16.775 27.7403 19.1138 26.127 19.1138 23.0295C19.1138 14.6105 0.310104 23.8155 0.310104 10.1629C0.311736 4.31867 4.552 0.871948 12.3487 0.871948C18.9898 0.871948 23.8241 3.88179 23.7311 11.7761H18.9604C18.9604 7.23899 16.3408 5.45206 12.3503 5.45206C8.11004 5.45206 5.39581 6.9346 5.39581 10.512C5.39581 18.1897 24.0429 10.2506 24.0429 22.9435H24.0412Z" fill="black"/>
<path d="M34.2388 16.8361C38.324 16.8361 41.4104 19.4091 43.5305 21.3715C43.5615 20.5872 43.5305 18.8415 43.5305 18.1432C43.5305 13.7815 42.0028 11.9928 37.9796 11.9928H28.874L28.843 7.28198H39.633C45.5576 7.28198 48.2082 10.7287 48.2082 18.7538V26.9972H51.2945V31.8817H45.8057V31.8388L45.2132 31.8817C44.216 31.8817 43.7786 30.3544 43.7786 29.3518C43.7786 27.957 44.371 25.3822 44.6828 24.7287L43.7476 24.0304C41.6585 30.5729 37.4492 32.2739 34.5179 32.2739C30.6824 32.2739 26.9399 29.307 26.9399 24.0733C26.9399 18.8397 30.4327 16.8325 34.2372 16.8325L34.2388 16.8361ZM36.2969 28.5263C40.7559 28.5263 42.6589 23.3357 42.6589 23.3357C42.6589 23.3357 39.0732 20.0644 35.9232 20.0644C34.5816 20.0644 31.6192 20.675 31.6192 24.1647C31.6192 27.0438 33.9271 28.5263 36.2969 28.5263Z" fill="black"/>
<path d="M58.8103 7.32849V10.5568L57.7184 14.1772H58.5916C60.276 8.9865 62.9886 6.80566 65.9199 6.80566C68.5394 6.80566 70.9093 8.63735 71.9375 13.871H72.9348C74.2437 9.46636 76.9579 6.80566 80.1373 6.80566C84.877 6.80566 88.1201 10.6445 88.1201 18.7125V31.8423H83.5044V19.76C83.5044 14.8307 82.3195 11.9086 78.8577 11.9086C75.7714 11.9086 73.5256 15.3106 73.5256 19.8029V31.8423H68.9099V19.717C68.9099 14.7877 67.663 11.8227 64.2012 11.8227C60.7395 11.8227 58.8071 15.8352 58.8071 18.8021V31.8441H54.1294V7.32849H58.8071H58.8103Z" fill="black"/>
<path d="M94.327 4.66785L91.115 4.71082V0H99.0357V26.8683H103.245V31.8406H98.2555C95.8857 31.8406 94.327 29.6168 94.327 26.3455V4.66785Z" fill="#0D65FD"/>
<path d="M111.946 16.8361C116.031 16.8361 119.118 19.4091 121.238 21.3715C121.269 20.5872 121.238 18.8415 121.238 18.1432C121.238 13.7815 119.71 11.9928 115.687 11.9928H106.581L106.55 7.28198H117.339C123.263 7.28198 125.914 10.7287 125.914 18.7538V26.9972H129V31.8817H123.511V31.8388L122.919 31.8817C121.922 31.8817 121.484 30.3544 121.484 29.3518C121.484 27.957 122.077 25.3822 122.388 24.7287L121.453 24.0304C119.364 30.5729 115.155 32.2739 112.223 32.2739C108.388 32.2739 104.646 29.307 104.646 24.0733C104.646 18.8397 108.138 16.8325 111.943 16.8325L111.946 16.8361ZM114.004 28.5263C118.463 28.5263 120.365 23.3357 120.365 23.3357C120.365 23.3357 116.779 20.0644 113.629 20.0644C112.289 20.0644 109.325 20.675 109.325 24.1647C109.325 27.0438 111.633 28.5263 114.002 28.5263H114.004Z" fill="#0D65FD"/>
</svg>
